<svg id="Capa_1" data-name="Capa 1" xmlns="http://www.w3.org/2000/svg" viewBox="0 0 578.35 738.49"><defs><style>.cls-1{fill:#e7af25;}.cls-2{fill:#225993;}</style></defs><title>Sin título-1</title><path class="cls-1" d="M299.28,248.33H579.15c9.06,0,9,0,9,8.91,0,87.12.17,174.25-.09,261.38-.14,45.94-13.57,88.36-37.47,127.62C524.53,689.09,489,722.63,445,747.4a290,290,0,0,1-70.16,27.85c-38,9.84-76.65,10.37-115.13,6.55C191.57,775,133.18,746.87,85.64,698.12a259.71,259.71,0,0,1-58.56-92.85,271.26,271.26,0,0,1-16.52-94.34q0-127.92,0-255.84c0-6.36.44-6.76,7.74-6.76Zm1,21.66v0q-130.35,0-260.68-.09c-4.92,0-6.51,1.3-6.46,6.23.24,22.89.12,45.77.13,68.66,0,63.27,0,126.54.25,189.81,0,6.36-.18,12.76.93,19.2,1.2,7,3.87,13.47,5.64,20.2A230.29,230.29,0,0,0,54.49,613.9a240.72,240.72,0,0,0,43.44,62.78,256,256,0,0,0,61.62,47.78c18.09,10.09,36.85,18.59,56.78,24.57a261.52,261.52,0,0,0,50.85,10.39c2.34.21,5.1,1,6.69-1.51s-1-3.54-2-5.17c-1.36-2.16-1.12-4.34.91-5.94s4.19-1.13,6.06.62c2.4,2.25,3.23,4.82,2,8-2.28,5.78-2.23,5.67,4.3,5.8,25.18.49,50.15-.59,74.9-6.14a299.94,299.94,0,0,0,54.37-17.47c2.54-1.1,4.29-2.79,2.66-5.59-3.72-6.38-7.64-12.66-11.53-18.95-.89-1.43-3.44-2.23-1.85-4.53a6,6,0,0,1,5.77-2.65c2.47.16,3.19,1.68,3.19,3.7,0,1.47,1.37,2.25,1.62,3.4,1.2,5.39,7.92,7.24,8.37,13.22.36,4.81,2.86,5.94,7.23,3.61s8.46-4.77,12.59-7.3A257.46,257.46,0,0,0,553.75,580.66c6.84-21,12.16-42.48,12.32-64.45.56-80.28.21-160.57.32-240.85,0-4.05-1.17-5.45-5.44-5.45Q430.62,270.07,300.27,270Z" transform="translate(-10.25 -45.51)"/><path class="cls-1" d="M299.52,225.43H18c-7.2,0-7.73-.48-7.73-7.44q0-82.23,0-164.46c0-7.85.22-8,8.26-8H581c7.44,0,7.52.09,7.52,7.43q0,82.23,0,164.45c0,8-.1,8.05-8.11,8.05Zm.4-157.77v0q-129.77,0-259.52,0c-7.36,0-7.57.22-7.57,7.46,0,40.6.09,81.2-.1,121.79,0,4.91,1.48,6.37,6.39,6.36q260.64-.13,521.29,0c4.78,0,6.05-1.47,6-6-.18-39.3-.13-78.61-.14-117.92,0-11.63,0-11.63-11.93-11.63Z" transform="translate(-10.25 -45.51)"/><path class="cls-1" d="M363.76,574.55c0,9.6.05,19.2,0,28.8-.07,9.85-6.3,16.44-16.19,17-15.86.9-27.52-6.62-35.87-19-4-5.85-8.22-8.17-15.17-7.58a112.27,112.27,0,0,1-20.25,0c-8.61-.85-15.52,2.18-22.54,6.54-18.45,11.46-37.93,20.93-59,26.73-12.73,3.51-25.68,5.15-38.92,2.28-14.14-3.06-27.71-18.7-28.27-33-.38-9.9,11.21-23.57,21.35-25.32,3.32-.58,3.29,1.46,3.27,3.6,0,4.24-.44,8.51-.1,12.72,1,12.37,9,22.32,21.24,24,19.29,2.68,38.15.25,55.82-8.5a29.68,29.68,0,0,0,5-3.51c2.95-2.32,3.69-4.58.75-7.85-4.8-5.34-2.65-11,4.47-12.65a3.77,3.77,0,0,1,1.67-.2c10.41,2.5,14.46-4,18.12-11.82a168.82,168.82,0,0,1,10.47-18.94c2.19-3.44,2-5.92-.41-8.94-8.81-11.12-7.45-9.59,4.1-16.43,3.37-2,6.93-3.7,10.29-5.72,3.71-2.24,6.29-1.77,8.95,1.94,16.4,22.91,33,45.68,49.53,68.51.76,1.05,1.33,2.52,2.89,2.16,1.9-.44,1.75-2.26,1.68-3.66-.85-15.5-.31-31-.29-46.5,0-4.39-3.34-6.36-5.74-9.07-1.2-1.36-3.09-2.53-2.14-4.67.88-2,2.89-1.21,4.5-1.26,8.54-.3,16.87-1.23,23.7-7.08a7.63,7.63,0,0,1,5.76-1.8c21.18,1.76,41.53,6.16,59.42,18.28,27.7,18.75,31.69,52,20.78,78-13.24,31.59-39.21,47.19-71.85,51.58-36.57,4.93-73.42,4.71-109.45-5.12-13.89-3.79-26.84-9.64-35-22.34-.1-.16-.22-.31-.3-.47-1.4-3.11-5.09-6.64-2.83-9.47,2.67-3.35,6,.79,8.82,2,40.3,17,82.18,23.75,125.89,19.28,19.26-2,35.94-8.49,47.9-24.34,14.64-19.39,16.5-60.37-13.26-75.73-10.68-5.51-22.26-7.44-34.21-7.74-3.89-.1-4.65,2-4.61,5.26.11,10,0,19.94,0,29.9Zm-79,3.62c2-.12,3.66-.34,5.34-.28,4.24.13,4.57-1.45,2.25-4.49-1.56-2.07-3-4.23-4.43-6.37-.92-1.37-1.51-3.16-3.55-3.17-2.54,0-2.54,2.27-3.36,3.84-.68,1.3-1.57,2.5-2.27,3.79-.92,1.74-2.88,3.4-1.67,5.51,1.09,1.91,3.37,1,5.17,1.16C283.21,578.22,284.15,578.17,284.79,578.17Z" transform="translate(-10.25 -45.51)"/><path class="cls-1" d="M506.6,492.34c-29.79-.34-58.31-6.28-85.42-18.78-19-8.78-38.51-16.6-59.95-17.5-26.69-1.12-48.34,10.86-57.08,38-.67,2.08-1.11,4.87-3.81,4.88-3,0-2.73-3.07-3.33-5-7.41-24.22-28.74-38.9-54.95-37.94-19.49.71-37.73,6.35-55,14.58-32.19,15.35-65.84,23.12-101.64,22-12.33-.38-24.16-3-35.78-6.67-5.76-1.85-7.18-9.62-2.77-13.8,1.55-1.46,3.1-1.1,4.61-.18,20,12.26,42.11,12.32,64.29,10.13,24.54-2.41,47.1-11.34,69.31-21.59,21.71-10,44.43-16.78,69-15.06,21.4,1.5,37.8,14.17,44.07,34.45.41,1.32.33,3.36,2.17,3.48s2-1.92,2.45-3.23c6.2-18.29,18.51-30.09,38-33.78,12.71-2.41,25.42-1.26,38,1.55,16,3.57,31.06,9.47,45.86,16.38,30.88,14.41,63.15,22.2,97.6,17.45a70.79,70.79,0,0,0,24.92-8.17c2.69-1.49,5.66-4.13,8.14,0,3.09,5.15,2.14,10-2.3,11.77a111,111,0,0,1-31.14,7C516.77,492.73,511.67,492.34,506.6,492.34Z" transform="translate(-10.25 -45.51)"/><path class="cls-1" d="M259.24,483.44c2.49-.52,4.58.68,6.3,3,3,4,6.27,7.82,9.12,11.92a10.28,10.28,0,0,0,9.4,4.86q16.32-.24,32.65,0c4.16.07,6.63-1.8,8.56-5.1,2.16-3.67,4.56-7.19,6.74-10.85a7.14,7.14,0,0,1,7.45-3.78c24.64,2.33,49.28,4.66,73.93,6.83,34.35,3,68.72,5.76,103.05,9,12.32,1.16,24.57,3,37,3.2,2.7.05,5,1.06,4.74,4.2s-2.63,4.22-5.63,3.95c-27-2.46-54.1-5-81.16-7.39-31.37-2.74-62.76-5.31-94.14-8-10.64-.91-21.3-1.73-31.91-3-4-.46-6.62.53-7.92,4.26C333,509.06,324.71,514,311,512.29c-10.15-1.29-20.62-.45-30.93-.16-4.05.12-6.21-1.95-8.32-4.63-3.32-4.23-6.71-8.42-9.91-12.73-1.64-2.23-3.67-2.86-6.32-2.6-31.9,3.16-63.78,6.4-95.69,9.36-27.62,2.56-55.27,4.74-82.91,7.17-7.83.69-15.64,1.69-23.46,2.55-1.68.19-3.35.46-5,.53-2.82.13-5.36-.2-5.56-3.84-.18-3.39,1.36-5.31,4.82-5.47,25.29-1.15,50.4-4.42,75.61-6.51,21.48-1.78,42.93-3.92,64.39-5.86,19.79-1.8,39.58-3.53,59.37-5.32C251,484.42,254.87,483.92,259.24,483.44Z" transform="translate(-10.25 -45.51)"/><path class="cls-1" d="M388.22,323.24a20.17,20.17,0,0,0,0,2.2c.19,1.68-1,4.2,1.56,4.64s2.42-2.29,3.22-3.81,1.52-3,2.17-4.49c1.41-3.28,3.6-4,6.7-2.16,2.71,1.61,5.8,2.5,8.27,4.63,3.65,3.14,3.74,6.1.15,9.24a13.52,13.52,0,0,0-2.09,1.81c-1.1,1.42-1.51,3.16-.27,4.57,1.54,1.77,3.15.46,4.37-.59,4.24-3.63,8.25-7.51,13.59-9.64,1.4-.56,2.8-1.55,4.16-.38,1.66,1.42-.33,2.51-.57,3.78-1,5-1.5,10.1-2.37,15.12-.42,2.41.29,5.77-2.88,6.61-3.43.91-4-2.46-5.38-4.56-1.24-1.93-2.53-3.26-5.43-2.81-5.14.8-12.22-3.51-14.08-8.4-.94-2.45-1.83-2.34-3.53-.94-2.11,1.73-4.06,1.1-6.09-.37-3.54-2.56-9-2.34-11.05-7.2a2.77,2.77,0,0,0-2.55-.63c-4.27,2.41-7.75-.37-11.61-1.21s-5.89-2-4.92-6.14a2.45,2.45,0,0,0-2.1-3.29,2.57,2.57,0,0,0-3,2c-.91,3.19-2.31,5.92-6.19,3.91-3.63-1.89-1.93-4.94-1-7.78s1.58-6.05,2.31-9.1c.58-2.43,1.88-4.16,4.62-3.81,2.54.32,4.17,1.59,3.31,4.55a2.55,2.55,0,0,0,1.81,3.51c2.09.52,3-1,3.57-2.67.7-2.16,1.64-3.61,4.44-2.72s3.44,2.7,3,5.12c-.41,2.17-1.17,4.26-1.7,6.41-.38,1.55-1.69,3.64,0,4.57,2.11,1.16,3.1-1.38,4.29-2.61,1.55-1.59,2.79-3.47,4.28-5.13,1.69-1.88,3.13-4.38,6.45-3a6.94,6.94,0,0,1,4.56,6.4c.11,1.47,0,2.95,0,4.43Z" transform="translate(-10.25 -45.51)"/><path class="cls-1" d="M99.28,617.26c-4.31,3.57-8.36,6.61-13.92,6.62a3.69,3.69,0,0,1-.18-.87c.57-2.33,4.61-4.68,2-6.63-2.91-2.16-5.77,1.48-8.13,3.14-2.88,2-1.06,4.75.67,6.71s3.49,3.89,6.31,4.37c1,.17,2.66-.16,2.45,1.44a3.73,3.73,0,0,1-2,2.39c-3.1,1.21-6.34,1.85-8.25-1.9-3.33-6.52-7.48-12.66-9.38-19.84-.27-1.07-1-2.14-.14-3.11s2-.28,3,.29c.76.44,2,1.08,2.53.79,7.72-4.23,17-5.66,23.3-12.41,1.91-2.07,3.72-2.49,4.47.26,1.69,6.14,5.22,11.36,7.78,17.06,1.67,3.71,1.07,8,5.68,10.91,3.18,2,2.59,6.2-1.61,8.5-5.07,2.78-10.06,5.72-15.05,8.63-1.76,1-3.5,2.13-5.15,3.33-1.47,1.07-1.8,4.47-4.53,2.8a9.72,9.72,0,0,1-4.56-6.7c-.34-2,1.15-2.35,2.61-2.93,7.53-3,14-7.88,20.93-11.81A7.58,7.58,0,0,0,109.8,627c1-1,2.5-2.13,1.45-3.72-.86-1.31-2.39-.6-3.62-.26a7.33,7.33,0,0,0-2,.89c-1.16.74-2.44,1.5-3.49.23-.9-1.1.37-2,1-2.84,2-2.77,2.8-5.63.74-8.72-1-1.56-2.16-3.43-4.32-2.94a11.67,11.67,0,0,0-6.66,3.76c-1,1.25.24,2.33,1.67,2.79S97.5,615.67,99.28,617.26Z" transform="translate(-10.25 -45.51)"/><path class="cls-1" d="M518.86,430.15c-.05,2.93,0,5.27-3.48,5a3.72,3.72,0,0,0-3.73,1.95c-1.75,2.77-3.77,5.42-7.6,4.13-4.8-1.62-8.11-5.24-8.42-10.06-.2-3.05-1.36-4.1-3.37-6-3.29-3.09-5.63-7.22-8.05-11.1-1.34-2.15-2-4.65-3.94-6.53-2.29-2.26-1.47-4.68.08-7,.61-.93,1.1-2.12.15-3-1.11-1.1-2,0-2.91.58-1.92,1.26-3.89,1.75-5.37-.46s-.5-4,1.66-5.55c3.05-2.14,5.93-4.51,8.83-6.84,1.19-.95,2.33-1.88,4-1.54,1.35.29,8.77,9.89,8.81,11.57.11,4.16-2.66,5.67-6.24,6.58-2.74.69-4.6,2.89-3.21,5.32,1.5,2.62,3.67,0,5.22-.84,10.67-5.78,10.51-5.76,17.23,4.63,2.28,3.53,1.35,5.42-2.4,5.51s-4.77,4.54-8.66,4.19c-.92-.09-1.08,2.67.1,3.17,2.12.89,4.66,3.47,6.8,0,1.75-2.82,4.11-4.68,7.41-3.46C516.51,422,518,426.27,518.86,430.15Z" transform="translate(-10.25 -45.51)"/><path class="cls-1" d="M242.38,319.56c2.08-2.74.76-6.05,1.48-9,.6-2.41,1.08-4.75,4.1-5.26s5.36.34,7,3.19c2.28,3.88,4.35,8,8.43,11.35,1.52-4.65-.39-8.48-1-12.28-.6-3.65.74-5.05,4.06-5.82,8.73-2,13.75-.06,15.53,6.29,2.07,7.38-.88,13-8.59,13.56-6.31.45-12.7,3.21-19.14.61a.72.72,0,0,0-.55,0c-4.72,3.2-10.47,3.49-15.65,5.38-1.68.62-3,2.24-4.62,3-6.71,3.17-8.76,2.27-11-4.62-.34-1.05-1.16-2.14-1-3.12.47-3.47-6.13-7.37.39-10.38,9.31-4.29,12.68-3.47,17.28,3.44C239.9,317.19,240.17,319.08,242.38,319.56Zm-8.83,1.82c-.44-2.33-1-4.73-4.07-5a1.89,1.89,0,0,0-2.12,2.5c.62,2.36.66,5.47,4,5.79C233.31,324.82,233.52,323,233.55,321.38ZM272,307.11c-2.65.73-1.94,2.82-1.83,4.54.13,1.89.54,4,3.13,3.66,2.16-.26,2.37-2.11,2.16-3.85C275.26,309.37,274.67,307.45,272,307.11Z" transform="translate(-10.25 -45.51)"/><path class="cls-1" d="M294.09,310c.21-7.3,3.7-11.11,9.78-11.57,6.51-.49,11.28,3.24,12.2,9.56.2,1.42-.27,3,.89,4.2a1.94,1.94,0,0,0,2.55.12c1.67-.94,1.71-2.28.72-3.72-2-2.87-1.13-5.14,1.36-7.21,4.08-3.37,8-1.81,12,.17,3,1.49,3.14,3.75,2,6.51a3.68,3.68,0,0,0-.14,2.66c2.44,5.16.3,8.85-4.31,10.87-4.78,2.08-9.48.45-12.52-3.48-2.26-2.91-3.77-3.06-6.07-.58-3.53,3.79-7.93,4.34-12.29,2.24S293.14,314.32,294.09,310Zm11.19-4.34a3.28,3.28,0,0,0-3.57,3.45c-.08,2.14.49,4.25,3,4.56s3.55-1.72,3.86-3.79C308.94,307.5,307.57,306.13,305.28,305.67Z" transform="translate(-10.25 -45.51)"/><path class="cls-1" d="M142.17,376.09a37.3,37.3,0,0,1-4.06-8.17c-1-3.28-1.13-6.2,1.89-8.45s5.5-.88,8.24.74a107.41,107.41,0,0,0,9.87,4.85c1.49.69,3.62.89,3.07,3.14-.47,1.93-1.25,4.1-3.88,4.07-4.38-.06-5.64,2.25-7.72,6-3.3,5.92-9,10.6-13.93,15.53-1.35,1.35-3.15-.07-4.4-1.26-3.24-3.06-6.35-6.26-9.73-9.16-2.85-2.46-1.61-4.4.25-6.53,2.46-2.8,3.8-.39,5.35,1.07,1.35,1.27,2.67,2.57,4,3.81s2.94,3.64,5.11,1.72S141.5,379.73,142.17,376.09Z" transform="translate(-10.25 -45.51)"/><path class="cls-1" d="M360.66,737.07c2.31,0,3.41,2.07,5.22,2.86,1.52.67,3,1.73,4.54,2,3.11.57,6.46.3,7.29-3.33.86-3.8-2.3-5.12-5.34-5.72-4.29-.86-8.73-.36-12.75-3.16-4.23-3-4.82-6.86-4.11-11,.65-3.83,3.41-6.47,7.52-7.22,2.57-.47,5.24-.5,7.76-1.15,4.35-1.11,5.78,1.2,6.4,4.74.15.9.39,1.92-.46,2.58a2.33,2.33,0,0,1-3.07-.29c-2.08-1.7-4.31-3-7.12-2.73-2.25.19-4.17,1.19-4.44,3.49s1.57,3.54,3.77,4c3.83.85,7.76,1.35,11.47,2.56,5.35,1.74,8,7.15,6.8,13-.83,4.17-6.31,8.23-11,8.13a17.84,17.84,0,0,0-3.34-.07C362.46,747.1,360.9,745.65,360.66,737.07Z" transform="translate(-10.25 -45.51)"/><path class="cls-1" d="M305.78,755.61c-2.77-.74-7,2.15-8.61-1.18-1.5-3.1,2.76-5.24,4.47-7.68a46.52,46.52,0,0,0,5.76-10c.86-2.25,1.2-4.75-.8-6.75s-4.38-1.42-6.78-.54c-1.22.44-2.54,2.33-3.88.52-.92-1.26.46-2.39,1.08-3.47,3.09-5.39,9.1-7.4,14.31-4.82,4.87,2.41,6.8,9.14,3.84,14.47a64.27,64.27,0,0,1-5.25,7.15c-.88,1.17-2.28,2.41-1.06,3.86,1,1.22,2.72.87,4.23.54,1.72-.36,3.14-3,5-1.38s.06,3.8-.39,5.69c-.6,2.49-2.31,3.66-4.92,3.63C310.49,755.59,308.24,755.61,305.78,755.61Z" transform="translate(-10.25 -45.51)"/><path class="cls-1" d="M515.09,632.53c-.08,5.69-4.24,11.49-9,12.53-5.55,1.22-8.31-2.24-10.19-6.59-1.17-2.71-3.16-3-5.84-3-6.72-.12-11.12-6.35-8.87-12.23a3.64,3.64,0,0,1,1.67-2c1-.36,1.53.66,1.91,1.55a8.18,8.18,0,0,0,1.26,2.44,5.62,5.62,0,0,0,6.15,1.55c1.32-.4,2.6-1.11,2.32-2.67-.42-2.28-2.56-3-4.32-4-1.54-.91-5.74.57-4.11-3.18,1.36-3.12,5.85-4,7.65-1.74,4.38,5.4,9.8,7.43,16.35,8.89C513.42,624.78,515.81,628.72,515.09,632.53Zm-7.91,5.63c1.47-.34,3.83,0,3.73-2.68-.12-3.52-2.94-4.39-5.79-4.74-2.11-.26-4.73.29-4.36,2.84C501.18,636.52,503.83,637.91,507.18,638.16Z" transform="translate(-10.25 -45.51)"/><path class="cls-1" d="M229.51,737.68c-.06-7.86,5.18-14,11.9-14.06,6.46,0,10.84,4.55,10.93,11.38.1,8.17-4.68,14.32-11.16,14.32C233.6,749.32,229.56,745.29,229.51,737.68Zm7.67,2.36c-.29,2.62,0,4.33,2.17,4.52s2.75-1.33,3-3.2a55.66,55.66,0,0,1,1.55-8.53c.55-1.87.14-2.83-1.56-3.38-2-.66-2.7.87-3.1,2.27C238.37,734.72,237.73,737.78,237.18,740Z" transform="translate(-10.25 -45.51)"/><path class="cls-1" d="M393.75,711.48a9,9,0,0,1,7,2.47c3.82,3.67,3.34,6.22-1.29,8.74-1.72.94-6,1-3.86,4.42,1.79,2.89,5,2.91,7.62.2.75-.76,1.57-2,2.77-1.12s.84,2.38.6,3.61c-.87,4.4-8.43,8.46-12.85,7-6.19-2.09-11.51-14.89-8.28-20.25C387.34,713.37,390,711.11,393.75,711.48Z" transform="translate(-10.25 -45.51)"/><path class="cls-1" d="M325.94,753.85c5.9-4.5,3.37-9.65,2.58-14.26-.75-4.32,1.2-9.94-5-12.38-1.67-.66-.95-2.28,0-3.21a23.59,23.59,0,0,1,8.51-5.12c2.39-.83,3.12,1.2,3.36,3.22.83,6.93,1.74,13.84,2.52,20.77.21,1.85.4,3.62,1.63,5.16,2.58,3.25,1.57,5.08-2.47,5.2C333.82,753.33,330.63,754.9,325.94,753.85Z" transform="translate(-10.25 -45.51)"/><path class="cls-1" d="M458.41,654.07c1.68.12,2.55,1.38,3.61,2.41,4.55,4.4,9.08,8.81,13.72,13.11a14.37,14.37,0,0,0,4.53,3.14c5.38,1.95,5.55,2.4,1.37,6.53-.79.79-1.6,1.55-2.43,2.3-2.18,2-2.71,5-5.85-.65-3.78-6.77-9-14.58-18.82-15.42-.36,0-1,0-1-.11-1.28-2.87.58-5.31,1.24-7.91C455.2,655.67,455.88,653.83,458.41,654.07Z" transform="translate(-10.25 -45.51)"/><path class="cls-1" d="M264.6,744.07c0,1.93,0,2.31,0,2.67-.31,2,2.31,4.76-.45,6s-5.84-.17-8.68-1c-1.9-.52-1.82-1.85-1-3.49a29.19,29.19,0,0,0,2.87-17c-.56-4.07,2.76-3.72,4.8-3,3.53,1.27,6.71,2.37,10.62,1.16,2.34-.72,3.71,1.56,3.84,3.72a3.39,3.39,0,0,1-3.69,3.88C266.2,737.05,264.67,738.61,264.6,744.07Z" transform="translate(-10.25 -45.51)"/><path class="cls-1" d="M496.25,654.74a3.68,3.68,0,0,1,0,1.1c-.93,2.85.23,8-2.9,8.1-3.7.07-1.53-4.65-2-7.23-.77-4.57-1.74-5.05-5.91-1.81-3.43,2.66-6.74,4.42-11,1.61-4.06-2.7-7.05-6-7.27-11.09-.07-1.47,0-3.16,1.74-3.7s1.74,1.41,2.51,2.27c2.47,2.77,5.21,5.26,8.8,6.5,1.55.53,3.52.92,4.55-.89s-.15-3.21-1.56-4.24c-2.56-1.85-5.13-3.71-8.27-4.58-1.36-.37-3.36-.2-3.25-2.26s2-2.9,3.92-3.32c5.13-1.14,13.61,2.9,16.53,8.4C494.05,647.07,496,650.64,496.25,654.74Z" transform="translate(-10.25 -45.51)"/><path class="cls-1" d="M130.42,681.62c1.2.15,3.06-.78,3.84.9.93,2-1.43,2.17-2.32,3.17s-1.91,2.14-.83,3.34c1.38,1.53,2.95.46,3.78-.68a16.68,16.68,0,0,0,2.65-5.38c.88-3.46-2.13-2.38-3.86-2.92a3.38,3.38,0,0,1-2.32-3.43c0-1.9,1.46-3,3.09-3.52,5.6-1.85,8.66,2.57,11.89,5.43,2.88,2.56,1.73,6.07-.52,9-2.49,3.2-5,6.36-7.43,9.61-2.26,3.06-5,3-6.73.14a11.41,11.41,0,0,0-6.38-5.54c-2.37-.83-4.11-3-3.22-5.71C123.3,682.23,126.62,681.51,130.42,681.62Z" transform="translate(-10.25 -45.51)"/><path class="cls-1" d="M160.07,715.74c1.2-6.77,2.39-13.47,2.5-20.33a2.52,2.52,0,0,1,4.09-1.92c1.91,1.66,7,.08,5.73,5-.08.34-.42.61-.57.94-1.18,2.63-3.83,6.16-.91,7.94,3.47,2.12,4.62-2.35,6.21-4.56.87-1.21,1.72-1.92,3.22-1.39,1.06.37,2.22.75,2.39,2a2.62,2.62,0,0,1-1.71,2.62c-5.86,3-10.69,7.4-15.72,11.53a3.89,3.89,0,0,1-4.14.92C159.85,718,160.25,716.73,160.07,715.74Z" transform="translate(-10.25 -45.51)"/><path class="cls-1" d="M210.33,336.12c.53,2.17-.13,3.7-2.52,4-2,.25-3.92.55-4.76-2.37a55.61,55.61,0,0,0-4.39-10.7c-1.63-3.07-.79-4.84,2.09-6.2,2.2-1,4.34-2.22,6.61-3,5.22-1.9,9.21.62,9.13,6,0,2.51.4,4.09,2.63,5.49,1.7,1.07,4.63,2.53,2.52,5.09-1.89,2.28-4.68,1.89-7,0-1.26-1.05-2.39-2.81-4.27-1.74C208.86,333.48,210.2,334.93,210.33,336.12Z" transform="translate(-10.25 -45.51)"/><path class="cls-1" d="M480.16,378.86c-3.09,3.58-5.18,8.35-9.44,11-3.94,2.46-6.48-1.09-8.91-3.54-6.32-6.36-6.3-6.39.36-12.69a18.52,18.52,0,0,1,2.44-2.26c2.31-1.48,3.68-6.41,6.79-4.15C475,369.88,478.65,373.4,480.16,378.86Z" transform="translate(-10.25 -45.51)"/><path class="cls-1" d="M192.4,341.75c1.92-.08,2.74-1.5,4-2.29,2.07-1.33,4.26-1,5.5.79,1.51,2.16-.74,3.24-2.26,4.18-1.09.66-2.45.88-3.59,1.48-8.9,4.74-8.89,4.75-13.14-3.81-5.11-10.32-4.75-11.26,6.06-16.15,1.45-.66,2.84-1,4.2.06s1,2.21.23,3.42c-.46.71-1.42,1.71,0,2.16,8.17,2.59,2.49,4.63-.23,6.81-.84.68-2,1.19-1.75,2.53C191.47,341.3,192.14,341.55,192.4,341.75Zm-3.1-9.18a5.16,5.16,0,0,0-1.23,1.33.67.67,0,0,0,.88.9,3.1,3.1,0,0,0,1.54-1.31C190.81,332.91,190.3,332.54,189.3,332.57Z" transform="translate(-10.25 -45.51)"/><path class="cls-1" d="M525.66,612.91c.63,4-1.59,7.34-4.57,10.29-1.5,1.49-3.4,1.76-4.88-.06s-.89-3.45.89-4.73c.75-.54,1.66-.85,2.42-1.38,2-1.41,3.1-3.3,2.27-5.71-.91-2.67-3.18-3.57-5.81-3.28a10.63,10.63,0,0,0-4.17,1.4c-2.79,1.67-4.49,1.73-6-1.78-2.08-4.93-4.5-5.17-8.22-1.37-1,1-1.64,2.74-3.52,1.71-1.71-.94-2-2.65-1.6-4.35.85-3.55,2.67-6.58,6.26-7.95s6.09.43,8.07,3.27c1.2,1.71,2.79,2,4.9,1.61C519.52,599,525.61,604.22,525.66,612.91Z" transform="translate(-10.25 -45.51)"/><path class="cls-1" d="M107.75,399.77a16.71,16.71,0,0,1-.87-3.54c0-2.17.87-4.09,3.13-4.69,2.61-.7,2.91,1.58,3.62,3.23,1.86,4.3,2.59,9.17,7.7,11.59,2.11,1,1.75,3.57.38,5.34s-4,2.25-5.45.72c-3.55-3.85-8-3.37-12.41-3.46-1.78,0-4.63,1.06-4.68-2.22,0-2.42,1.59-4,4-4.72C104.86,401.49,107.64,402.65,107.75,399.77Z" transform="translate(-10.25 -45.51)"/><path class="cls-1" d="M180.49,352.63c.35,2.67-1.62,4-3.39,5.28s-3.44.65-5.12-.49c-4-2.73-8-5.42-12-8-2.2-1.39-2.7-3-1.18-5a4,4,0,0,1,5.87-1c2.36,1.57,4.49,6,6.78,4.53,2.9-1.81-1-5-1.38-7.76-.33-2.47.76-3.87,2.95-4.6,2.42-.79,3.38.57,3.88,2.65C178,343,179.28,347.83,180.49,352.63Z" transform="translate(-10.25 -45.51)"/><path class="cls-1" d="M126.25,668.35c0,7.61-6.87,12.73-13,10.65-1.23-.42-2.67-.82-2.82-2.31-.2-2,1.54-1.62,2.73-1.79,4.84-.72,5.64-3.89,4.35-7.7a29.21,29.21,0,0,1-1.77-11.34c.45-7,9-11.17,14.89-7.34,1.13.74,2.36,1.65,1.79,3.05s-1.87.43-2.93.34c-4.95-.45-6.93,2-5.21,6.57C125.55,662,125.65,665.65,126.25,668.35Z" transform="translate(-10.25 -45.51)"/><path class="cls-1" d="M425.81,693.09c.11-1,.21-2.85.51-4.66.49-2.91,1.68-4.29,4.19-1.41a4.61,4.61,0,0,0,4,1.41c2.1,0,2.31,1.06,2,2.9-.66,3.52,3.63,11.21,7,12.35,2.29.77,5.56.69,3.6,4.27-1.53,2.79-4.4,4.21-7.61,2.54a14.12,14.12,0,0,1-4.57-4c-2.54-3.34-4.2-7.38-8.43-9.29C425,696.59,425.11,695.19,425.81,693.09Z" transform="translate(-10.25 -45.51)"/><path class="cls-1" d="M161.47,678a4.7,4.7,0,0,1,3.69,2.18c1.27,1.67,1.12,3.35.09,5.12-4.53,7.76-11.37,13.91-15.53,21.93-1.57,3-3.62,1.77-5.43.13s-4.29-2.86-1.42-5.69c6.22-6.15,10.66-13.62,15.57-20.74C159.27,679.71,159.67,678.19,161.47,678Z" transform="translate(-10.25 -45.51)"/><path class="cls-1" d="M178,723.54a6,6,0,0,1,8.08-5.39c2.68,1,1.48,2.37.43,3.76s-1.07,2.93.77,3.55a2.13,2.13,0,0,0,2.94-2.32c-.61-4.81,5.21-7.59,3.78-12.81-.41-1.49,2.22-1.51,3.53-.67,3.46,2.2,4.58,5.41,2.81,9.05-1.84,3.8-3.65,7.57-4.49,11.73-.78,3.81-3.38,3.94-5.68,1.8a12.16,12.16,0,0,0-8.33-3.6C179.31,728.51,177.44,726.77,178,723.54Z" transform="translate(-10.25 -45.51)"/><path class="cls-1" d="M218.85,742.58c-4.86-.54-5.7-2.65-3.61-6.67,2.34-4.47,5.51-8.88,3.5-14.46-.6-1.65.76-2.23,1.93-2.87A5,5,0,0,0,223.3,714c0-2.21-.32-5,3.28-4.22,3.26.7,5.58,2.55,4.3,6.34-1.42,4.19-3,8.35-4.58,12.48-1.36,3.44-2.75,6.85-3.1,10.59C222.94,742,221.23,743,218.85,742.58Z" transform="translate(-10.25 -45.51)"/><path class="cls-1" d="M445.05,370.45c-3.5-1.84-7.31-4.29-9.87-7.9-2.21-3.13,1.5-4.83,3-6.94,1.68-2.42,3.73-4.6,5.52-6.95,1.51-2,3.29-2.47,5.27-.92s1.82,3.46.31,5.32a25.4,25.4,0,0,1-2.85,3.4c-3.44,3-3.73,5.68.16,8.51,1.41,1,2.37,2.46,1.45,4.3C447.57,370.14,446.67,370.51,445.05,370.45Z" transform="translate(-10.25 -45.51)"/><path class="cls-1" d="M431,714.87a7.53,7.53,0,0,1-2.76,5.81c-1.12,1-2.38,2.08-4,1.24s-.83-2.2-.65-3.47c.82-5.88-2.7-9.55-6.9-12.8-1.26-1-4.38-.42-3.15-3.31,1.07-2.52,3.38-3.23,6.1-2.59C425.22,701,431,708.7,431,714.87Z" transform="translate(-10.25 -45.51)"/><path class="cls-1" d="M202.41,730.43c.5-5.55,2.51-10.5,8.22-13.2,1.7-.8,3.78-1.41,5.17.32s-.63,2.85-1.54,4.13c-2.95,4.12-5.57,8.35-3.87,13.75.45,1.44.82,3-1,3.75a3.83,3.83,0,0,1-4.16-.9C203,736.23,202.48,733.54,202.41,730.43Z" transform="translate(-10.25 -45.51)"/><path class="cls-1" d="M452.43,375.88a3.33,3.33,0,0,1-2.23-5.67c2.84-3.09,6.25-5.63,8.65-9.16.9-1.33,2.71-1.05,4.13-.56,1,.32,1.15,1.34,1.22,2.27C464.35,364.84,454.51,375.79,452.43,375.88Z" transform="translate(-10.25 -45.51)"/><path class="cls-1" d="M453.37,702.84c-3.2-.07-3.88-2-3.73-4.46.14-2.21,1.07-4.11,3.63-4A4.33,4.33,0,0,1,457.7,699C457.65,701.68,455.77,702.79,453.37,702.84Z" transform="translate(-10.25 -45.51)"/><path class="cls-1" d="M105,669.28c-2.33-.44-4.19-1.4-4.16-3.47,0-3.5,3.36-4.59,5.77-6.12,1.17-.74,2.59.75,1.94,1.59C106.64,663.7,108,667.59,105,669.28Z" transform="translate(-10.25 -45.51)"/><path class="cls-1" d="M187,715.09c-2-.26-3.27-1.15-3.32-3.09-.08-3,1.9-4.11,4.51-4.45,1.55-.21,2.59.65,2.41,2.16C190.31,712.06,189.75,714.39,187,715.09Z" transform="translate(-10.25 -45.51)"/><path class="cls-1" d="M132.78,659.18c.93-1.66-1.25-5,1.88-4.72,1.86.14,3.74,3,3.74,5.44a3.66,3.66,0,0,1-4,3.65C131.55,663.23,133.42,660.63,132.78,659.18Z" transform="translate(-10.25 -45.51)"/><path class="cls-1" d="M104.24,437.28a3.79,3.79,0,0,1-3.38,3.69,2.72,2.72,0,0,1-3.36-2.71,3.17,3.17,0,0,1,3.16-3.67A3.28,3.28,0,0,1,104.24,437.28Z" transform="translate(-10.25 -45.51)"/><path class="cls-1" d="M110,418.33c1.92.22,3.21,1.18,3.3,3.1a3.49,3.49,0,0,1-3.23,3.83c-2.53.27-3-1.79-3-3.68A2.89,2.89,0,0,1,110,418.33Z" transform="translate(-10.25 -45.51)"/><path class="cls-1" d="M105.56,432.55c-1.86,0-3.19-.78-3.21-2.81a2.84,2.84,0,0,1,3-3.15c1.8-.08,2.66,1.06,2.89,2.63C108.51,431.14,107.67,432.34,105.56,432.55Z" transform="translate(-10.25 -45.51)"/><path class="cls-1" d="M399.49,166.29c0-6.27.11-12.55,0-18.82-.09-3.88,1.34-5.46,5.5-5.87,6.78-.67,11.49,1.37,14.82,7.32,2.53,4.5,5.71,8.66,8.68,12.92.72,1,1.66,2.33,3.14,1.81,1.76-.61.73-2.19.72-3.37,0-4.43-.07-8.86-.16-13.29-.12-5.66,3.85-5.28,7.75-5.25s7.86-.59,7.8,5.17c-.14,13.1-.23,26.2-.2,39.3,0,4.1-1.86,5.13-5.85,5.42-6.55.48-11-1.47-14.21-7.33-2.74-5-6.42-9.51-9.75-14.19-.6-.84-1.33-2.08-2.65-1.5s-.82,1.91-.79,2.95c.13,4.42.27,8.84.51,13.26.28,5.35-2.3,6.88-7.56,6.82-5,0-7.93-.83-7.68-6.53.27-6.26.06-12.55.06-18.82Z" transform="translate(-10.25 -45.51)"/><path class="cls-1" d="M147,166.22c0-6.28.13-12.55,0-18.82-.11-3.93,1.3-5.79,5.52-5.71,8.25.18,16.51,0,24.76.15s13.11,3.4,15.2,10-.37,11.53-5.71,15.43c-2.39,1.75-2.27,3.45-.31,5.5,3.78,4,5.85,9,8.24,13.75,1.61,3.2.86,5.16-3.34,5.4-12.12.68-12.55.52-18.13-10.34-1.18-2.3-2.51-4.53-3.88-6.73-.92-1.46-2.23-2.75-4.11-2.35-2.25.47-1.83,2.47-1.82,4.08,0,3.32.12,6.64.21,10,.1,3.61-1.42,5.59-5.34,5.38-1.87-.1-3.76,0-5.63,0-4.08.13-5.73-1.85-5.67-5.76.11-6.64,0-13.28,0-19.92Zm21.37-13.93c-3.55-.54-5.5.62-5.31,4.37.15,3.12,1.06,5.38,4.87,5.1,3.56-.27,8-.33,8.19-4.67C176.37,152.36,171.76,152.62,168.39,152.29Z" transform="translate(-10.25 -45.51)"/><path class="cls-1" d="M406.81,104.57c0-6.26.18-12.52-.06-18.77-.17-4.43,1.31-6.47,6.09-6.23a132,132,0,0,0,16.28,0C448.59,78.14,455,96,452.85,108.82c-2.49,14.94-9.55,20.44-24.9,20.61-5.06,0-10.13-.21-15.16.1-4.84.31-6.22-1.75-6-6.19.27-6.25.07-12.51.07-18.77Zm16.56-.68c0,2.21,0,4.42,0,6.64s-.85,5.21,2.39,6a7.9,7.9,0,0,0,8.2-2.34c3.37-3.82,3.87-14.5.46-18.37-2.16-2.46-5.05-4.78-8.74-3.6-3.35,1.07-2.15,4.25-2.28,6.7C423.32,100.57,423.39,102.23,423.37,103.89Z" transform="translate(-10.25 -45.51)"/><path class="cls-1" d="M130.92,103.42c0-6.6.17-12.31,0-18-.19-5.07,2.76-5.81,6.86-5.52,3.9.28,8.66-1.26,8.55,5.5-.22,12.91-.13,25.83,0,38.74,0,3.75-1.53,5-5.28,5.45-7,.8-11.75-1.35-15.15-7.62-2.71-5-6.42-9.5-9.73-14.19-.6-.85-1.11-2.27-2.47-1.71-1.15.48-1.07,1.83-1,3,.15,5,.24,10,.49,14.92.2,4-1.67,5.92-5.71,5.53-3.84-.37-9.37,2.09-9.36-5.16q0-19.65,0-39.29c0-3.78,1.81-5,5.56-5.18,6-.27,10.89.39,13.9,6.6,2.16,4.43,5.6,8.26,8.33,12.44A11.09,11.09,0,0,0,130.92,103.42Z" transform="translate(-10.25 -45.51)"/><path class="cls-1" d="M280.55,104.51c0-6.64,0-13.28,0-19.93,0-3,.85-5.07,4.39-5,8.82.08,17.66-.23,26.46.28,10.37.6,15.07,6.53,14.12,16.54-.41,4.32-3.06,7.07-6.39,9.26-2.47,1.62-2.34,2.88-.34,4.7,4.52,4.13,6.53,9.82,9.32,15,1.49,2.75.11,4.18-2.9,4.19-2.62,0-5.28-.26-7.87,0-4,.45-6.27-1.4-7.95-4.73-2-4-4.17-7.84-6.44-11.65-1.05-1.78-2.57-3.46-5-2.6s-1.72,3-1.7,4.79c0,3,.25,5.89.38,8.84.16,3.72-1.68,5.46-5.44,5.36-1.87,0-3.75-.06-5.63,0-3.59.11-5-1.61-5-5.08.11-6.65,0-13.29,0-19.94Zm21-5c3.23-.38,7.3-.06,7.37-4.7.06-3.75-3.22-4.63-6.34-4.67s-6.54,0-6.42,4.73C296.23,98.48,298.13,99.66,301.53,99.47Z" transform="translate(-10.25 -45.51)"/><path class="cls-1" d="M477.27,142c6.58-1.54,9.75,1.25,11.83,7.19,4.38,12.54,9.45,24.85,14.24,37.25,1.41,3.65.06,5.21-3.81,5.07a27.6,27.6,0,0,0-5.61.23c-3.76.67-6.15-.64-7.42-4.18-2.51-7-8.57-3.29-13.1-4.13-3.45-.64-4.89,1.35-5.94,4.41-1.27,3.66-12.42,5.95-15.36,3.37-1.68-1.47-1.25-3.41-.6-5.15,4.53-12.1,9.31-24.12,13.64-36.29C467.28,143.74,470.37,140,477.27,142Zm-.22,30.22c2.78.16,4.55-.64,4-3.37-.68-3.32-1-8.83-4.18-8.59-3.56.26-2.73,6-3.68,9.27C472.3,172.54,475.55,171.89,477.05,172.21Z" transform="translate(-10.25 -45.51)"/><path class="cls-1" d="M508.09,103.3c0-5.91.13-11.82,0-17.71-.11-3.94,1.33-5.79,5.53-5.68,6.75.17,13.51-.1,20.26.09,10.42.29,17.54,6.44,19.54,16.48a40,40,0,0,1,.78,11.55c-1.24,13.92-8.77,20.84-23.08,21.07-5.43.09-10.9-.26-16.31.13-4.8.35-6.44-1.75-6.41-6,0-6.64,0-13.28,0-19.91Zm30.2.86c.25-2.87,0-6.58-2.64-9.56-2.39-2.66-5.6-4-9.06-2.91s-2.91,4.37-2.73,7.08a64,64,0,0,1,0,12.68c-.47,3.62,1.07,5.56,5,5.62C535.54,117.19,538.26,113.79,538.29,104.16Z" transform="translate(-10.25 -45.51)"/><path class="cls-1" d="M387.34,191.48c-4.08.84-7.93-.06-9.23-5.77-.4-1.73-2.28-2.33-4.09-2.33-3.19,0-6.37,0-9.55,0a4.39,4.39,0,0,0-4.12,2.38c-1,1.9-1,4.91-3.52,5.29a49.66,49.66,0,0,1-11.17.27c-2.88-.24-2.81-2.6-2-4.67q7.88-20.66,15.85-41.29a5.53,5.53,0,0,1,5.17-3.6c.93-.08,1.87,0,2.81,0,11.06,0,11.1-.06,14.86,10,3.95,10.51,7.78,21.07,11.67,31.6C397,191.49,397,191.48,387.34,191.48Zm-14.59-23.64c-.59-2-.22-5.86-3.24-5.75-3.19.12-2.84,4.13-3.42,6.62s1.21,3.19,3.31,3.25C372,172,373.14,170.75,372.75,167.84Z" transform="translate(-10.25 -45.51)"/><path class="cls-1" d="M365.82,94.83c-3.4,1-5.71-.48-8-2.78a12.36,12.36,0,0,0-4.69-2.89c-2.26-.78-4.82-.49-5.55,2.15-.69,2.49,1.54,3.69,3.58,4.1a71.61,71.61,0,0,1,13.43,3.81c7.1,3,11.7,8.83,11,14.91-.84,7.29-7.1,14-14.33,15.24a47.62,47.62,0,0,1-17.33,0c-6.9-1.36-11.13-5.73-13.33-12.14-.56-1.63-.67-3.23,1-4.48,3.15-2.4,12.34-1.07,14.53,2.25,1.26,1.91,2.58,3.76,4.91,4.29,3.33.77,6.73.62,7.87-3.2,1.07-3.57-1.92-4.92-4.69-5.64A99.42,99.42,0,0,1,342,106.47c-7.36-3-10.54-7-10.26-13.45a14.48,14.48,0,0,1,11.71-13.19,43.3,43.3,0,0,1,19.51.32,13.59,13.59,0,0,1,7,4.38c1.9,2.25,4.28,4.5,3.13,7.82C371.81,96,368.32,94.27,365.82,94.83Z" transform="translate(-10.25 -45.51)"/><path class="cls-1" d="M90,99.51c-.57,6.68,1.58,14.83-3.68,21.94-1.81,2.45-3.68,4.78-6.48,5.94-9.41,3.93-19,4-28.18-.37-8.47-4-9.86-11.82-9.75-20.16.09-7,.15-14-.06-21-.14-4.2,1.35-6.33,5.81-5.94.74.07,1.49,0,2.24,0,8.23.06,8.21.06,8.17,8.41,0,6.82-.05,13.63,0,20.45,0,5.51,3.46,9.32,8.15,9.21,4.2-.09,7.92-4.1,8-9.11.15-7.74.29-15.49,0-23.22-.25-5.44,2.71-6,7-5.78s9.18-1.16,8.83,5.81C89.86,89.94,90,94.18,90,99.51Z" transform="translate(-10.25 -45.51)"/><path class="cls-1" d="M231.89,104.72c0-6.62.1-13.25,0-19.88-.08-3.6,1.58-4.94,5.06-4.92q15.75.08,31.48,0c3.51,0,5.1,1.5,5.1,5s-1.07,5.8-5,5.81c-5.43,0-10.87,0-16.3,0-2.5,0-4.65.47-4.55,3.51.1,2.76,1.89,3.77,4.54,3.73,4.87-.07,9.76.08,14.62-.17,4.43-.24,4.81,2.41,4.81,5.66s-.75,5.76-5,5.49c-4.48-.27-9-.06-13.49-.23-3.21-.12-5.67.4-5.59,4.3s2.26,5,5.9,4.86c5.05-.19,10.12,0,15.17-.17,4.11-.17,5.77,1.59,5.82,5.52s-1,6.38-5.62,6.33c-10.68-.13-21.36-.07-32,0-3.83,0-5.38-1.76-5.32-5.44.09-6.45,0-12.9,0-19.35Z" transform="translate(-10.25 -45.51)"/><path class="cls-1" d="M243.81,191.94c-6.48.38-13.34-.89-18.08-7.23-2.23-3-4.61-6.44-1.12-9.81,2.63-2.55,11.33-1.39,13.2,1.39,1.6,2.37,3.35,4.57,6.22,5.29,3.05.75,5.8-.2,7-3.18,1.23-3.15-1-4.81-3.7-5.71-3.91-1.29-7.89-2.34-11.8-3.65-7.68-2.58-11.55-7.35-11.4-13.86.15-6.32,4.5-11.26,12.31-13.18a35,35,0,0,1,20.47.83,12.55,12.55,0,0,1,3,1.57c4.16,2.94,6.75,8.49,5.06,10.69s-11.74,2-14.26-.39c-1.78-1.69-3.36-3.51-5.92-3.95a3.9,3.9,0,0,0-4.61,2.33c-1,2.4.8,3.38,2.67,3.95,3.22,1,6.48,1.84,9.74,2.67,10.66,2.73,16.08,8.72,15.24,16.89-.9,8.77-8.45,14.87-19,15.34C247.4,192,246.08,191.94,243.81,191.94Z" transform="translate(-10.25 -45.51)"/><path class="cls-1" d="M119.16,192c-13.72,0-21.68-5.37-24.85-16.29-3.77-12.95-.09-25.25,9.29-31.08,10.49-6.51,26.68-4.5,33.87,4.32,1.78,2.18,4.7,4.41,1.93,7.63-2.35,2.73-10.83,3.6-12.94,1.27-2.9-3.21-5.86-6.07-10.55-4.11-5.13,2.15-6.79,6.63-6.81,11.72a31.18,31.18,0,0,0,.9,7.64c.93,3.61,3.09,6.28,7.22,6.75,4.29.49,7.07-1.35,9-5.09,2.22-4.26,5.93-4.47,12.41-1.06,4.31,2.27,2.33,5.25.8,7.95C134.89,189.67,127.5,192.34,119.16,192Z" transform="translate(-10.25 -45.51)"/><path class="cls-1" d="M495.81,129.12c-4,.65-7.86-.13-9.06-5.62-.39-1.82-2.06-2.51-3.92-2.52q-4.77,0-9.55,0a5,5,0,0,0-4.78,3.18c-2.15,4.24-10.55,6.85-15,4.84-2.11-.94-1.83-2.46-1.19-4.13,5.22-13.59,10.47-27.17,15.62-40.78,1.16-3,3.21-4.11,6.42-4.2,12.58-.38,12.6-.29,16.66,11.23,3.54,10.08,7,20.19,11.29,30C506.12,130,503.37,129.43,495.81,129.12Zm-14.08-22.89c-1.8-2.28.24-8.22-4.1-8-3.41.15-2.75,5.79-3.56,9-.61,2.37,1.77,2.85,3.77,2.87C480.09,110.1,482,109.68,481.73,106.23Z" transform="translate(-10.25 -45.51)"/><path class="cls-1" d="M201,129.33c-5.64,1.75-8.38-1.5-10.29-6.69-4.47-12.12-9.28-24.11-13.81-36.21-2.15-5.71-1.28-6.73,5-6.8,9.69-.11,9.61-.08,12.19,9.11,1.79,6.39,3.85,12.71,5.77,19.06.32,1.07.5,2.45,1.75,2.59,1.66.19,2-1.3,2.42-2.55,2.25-7.42,4.41-14.86,6.77-22.25,1.67-5.26,10.4-8.37,15.16-5.54,2.1,1.25,1.76,3.16,1.12,4.9-4.94,13.33-10,26.59-14.89,39.94C210.17,130.4,205.73,129.54,201,129.33Z" transform="translate(-10.25 -45.51)"/><path class="cls-1" d="M301.62,173.07c0,4.24-.18,8.49.05,12.72s-1.66,6.14-6,5.72a23.56,23.56,0,0,0-3.94,0c-5,.42-6.66-2-6.55-6.62.19-7.37.08-14.75.12-22.12.05-7.94.06-7.95-8-7.93-3.71,0-7.29.08-7.77-5-.62-6.51.53-7.84,7.24-7.82,11.25,0,22.5.16,33.75-.06,4.53-.09,6.52,1.33,6.49,6s-1.35,7.18-6.8,7c-8.72-.35-8.73-.09-8.7,8.74,0,3.13,0,6.27,0,9.4Z" transform="translate(-10.25 -45.51)"/><path class="cls-1" d="M398,104.75c0,6.27-.15,12.55.06,18.81.13,4.14-1.23,6-5.77,6-10.8,0-10.74.18-10.69-10.52.05-11.07.11-22.13-.09-33.2-.08-4.73,1.6-7,6.6-6.3a21.83,21.83,0,0,0,4.5,0c3.9-.3,5.44,1.58,5.4,5.25C397.91,91.48,398,98.12,398,104.75Z" transform="translate(-10.25 -45.51)"/><path class="cls-1" d="M199.83,166.06c0-6.25.12-12.51,0-18.75-.11-3.93,1.3-6,5.53-5.58a31.38,31.38,0,0,0,3.36,0c7.17-.05,7.75.49,7.75,7.42,0,11.77-.18,23.54.1,35.3.13,5.22-1.6,7.26-7.08,7.12-9.52-.23-9.58,0-9.6-9.52,0-2.76,0-5.51,0-8.27,0-2.58,0-5.15,0-7.73Z" transform="translate(-10.25 -45.51)"/><path class="cls-1" d="M338.43,166.46c0,6.44-.14,12.89,0,19.32.12,4.32-1.75,6.13-6.05,5.71-.37,0-.74,0-1.12,0-9.41.1-9.4.1-9.35-8.94.05-11.6.24-23.2.07-34.79-.07-4.57,1.62-6.5,6.25-6a44.77,44.77,0,0,0,5.05,0c3.72,0,5.42,1.6,5.32,5.4-.17,6.43-.05,12.88-.05,19.32Z" transform="translate(-10.25 -45.51)"/><path class="cls-1" d="M154.69,104.15c0-6.26.15-12.52,0-18.78-.13-4.12,1.77-5.7,5.74-5.5a47.26,47.26,0,0,0,5.05,0c3.56-.18,5.27,1.62,5.29,4.92q.14,20.16.1,40.32c0,3-1.74,4.3-4.64,4.34-2.06,0-4.12,0-6.18,0-3.77,0-5.4-1.8-5.35-5.47C154.75,117.41,154.69,110.78,154.69,104.15Z" transform="translate(-10.25 -45.51)"/><path class="cls-2" d="M189.3,332.57c1,0,1.51.34,1.19.92A3.1,3.1,0,0,1,189,334.8a.67.67,0,0,1-.88-.9A5.16,5.16,0,0,1,189.3,332.57Z" transform="translate(-10.25 -45.51)"/></svg>